<svg width="269" height="74" viewBox="0 0 269 74" fill="none" xmlns="http://www.w3.org/2000/svg">
<path d="M10.1813 40.818C10.1813 37.57 10.8193 34.6893 12.0953 32.176C13.41 29.6627 15.1693 27.7293 17.3733 26.376C19.616 25.0227 22.11 24.346 24.8553 24.346C27.2526 24.346 29.3406 24.8293 31.1193 25.796C32.9366 26.7627 34.3866 27.9807 35.4693 29.45V24.868H43.6473V57H35.4693V52.302C34.4253 53.81 32.9753 55.0667 31.1193 56.072C29.302 57.0387 27.1946 57.522 24.7973 57.522C22.0906 57.522 19.616 56.826 17.3733 55.434C15.1693 54.042 13.41 52.0893 12.0953 49.576C10.8193 47.024 10.1813 44.1047 10.1813 40.818ZM35.4693 40.934C35.4693 38.962 35.0826 37.28 34.3093 35.888C33.536 34.4573 32.492 33.3747 31.1773 32.64C29.8626 31.8667 28.4513 31.48 26.9433 31.48C25.4353 31.48 24.0433 31.8473 22.7673 32.582C21.4913 33.3167 20.4473 34.3993 19.6353 35.83C18.862 37.222 18.4753 38.8847 18.4753 40.818C18.4753 42.7513 18.862 44.4527 19.6353 45.922C20.4473 47.3527 21.4913 48.4547 22.7673 49.228C24.082 50.0013 25.474 50.388 26.9433 50.388C28.4513 50.388 29.8626 50.0207 31.1773 49.286C32.492 48.5127 33.536 47.43 34.3093 46.038C35.0826 44.6073 35.4693 42.906 35.4693 40.934ZM57.3779 14.08V57H49.2579V14.08H57.3779ZM72.5345 31.538V47.082C72.5345 48.1647 72.7858 48.9573 73.2885 49.46C73.8298 49.924 74.7191 50.156 75.9565 50.156H79.7265V57H74.6225C67.7785 57 64.3565 53.6747 64.3565 47.024V31.538H60.5285V24.868H64.3565V16.922H72.5345V24.868H79.7265V31.538H72.5345ZM91.3668 29.856C92.4108 28.1547 93.7641 26.8207 95.4268 25.854C97.1281 24.8873 99.0615 24.404 101.227 24.404V32.93H99.0808C96.5288 32.93 94.5955 33.5293 93.2808 34.728C92.0048 35.9267 91.3668 38.0147 91.3668 40.992V57H83.2468V24.868H91.3668V29.856ZM134.71 24.868V57H126.532V52.94C125.488 54.332 124.115 55.434 122.414 56.246C120.751 57.0193 118.934 57.406 116.962 57.406C114.449 57.406 112.225 56.884 110.292 55.84C108.359 54.7573 106.831 53.1913 105.71 51.142C104.627 49.054 104.086 46.5793 104.086 43.718V24.868H112.206V42.558C112.206 45.11 112.844 47.082 114.12 48.474C115.396 49.8273 117.136 50.504 119.34 50.504C121.583 50.504 123.342 49.8273 124.618 48.474C125.894 47.082 126.532 45.11 126.532 42.558V24.868H134.71ZM180.306 24.404C184.25 24.404 187.42 25.622 189.818 28.058C192.254 30.4553 193.472 33.8193 193.472 38.15V57H185.352V39.252C185.352 36.7387 184.714 34.8247 183.438 33.51C182.162 32.1567 180.422 31.48 178.218 31.48C176.014 31.48 174.254 32.1567 172.94 33.51C171.664 34.8247 171.026 36.7387 171.026 39.252V57H162.906V39.252C162.906 36.7387 162.268 34.8247 160.992 33.51C159.716 32.1567 157.976 31.48 155.772 31.48C153.529 31.48 151.75 32.1567 150.436 33.51C149.16 34.8247 148.522 36.7387 148.522 39.252V57H140.402V24.868H148.522V28.754C149.566 27.4007 150.9 26.3373 152.524 25.564C154.186 24.7907 156.004 24.404 157.976 24.404C160.489 24.404 162.732 24.9453 164.704 26.028C166.676 27.072 168.203 28.58 169.286 30.552C170.33 28.696 171.838 27.2073 173.81 26.086C175.82 24.9647 177.986 24.404 180.306 24.404ZM209.516 40.818C209.516 37.57 210.154 34.6893 211.43 32.176C212.744 29.6627 214.504 27.7293 216.708 26.376C218.95 25.0227 221.444 24.346 224.19 24.346C226.587 24.346 228.675 24.8293 230.454 25.796C232.271 26.7627 233.721 27.9807 234.804 29.45V24.868H242.982V57H234.804V52.302C233.76 53.81 232.31 55.0667 230.454 56.072C228.636 57.0387 226.529 57.522 224.132 57.522C221.425 57.522 218.95 56.826 216.708 55.434C214.504 54.042 212.744 52.0893 211.43 49.576C210.154 47.024 209.516 44.1047 209.516 40.818ZM234.804 40.934C234.804 38.962 234.417 37.28 233.644 35.888C232.87 34.4573 231.826 33.3747 230.512 32.64C229.197 31.8667 227.786 31.48 226.278 31.48C224.77 31.48 223.378 31.8473 222.102 32.582C220.826 33.3167 219.782 34.3993 218.97 35.83C218.196 37.222 217.81 38.8847 217.81 40.818C217.81 42.7513 218.196 44.4527 218.97 45.922C219.782 47.3527 220.826 48.4547 222.102 49.228C223.416 50.0013 224.808 50.388 226.278 50.388C227.786 50.388 229.197 50.0207 230.512 49.286C231.826 48.5127 232.87 47.43 233.644 46.038C234.417 44.6073 234.804 42.906 234.804 40.934ZM252.71 21.04C251.279 21.04 250.081 20.5953 249.114 19.706C248.186 18.778 247.722 17.6373 247.722 16.284C247.722 14.9307 248.186 13.8093 249.114 12.92C250.081 11.992 251.279 11.528 252.71 11.528C254.141 11.528 255.32 11.992 256.248 12.92C257.215 13.8093 257.698 14.9307 257.698 16.284C257.698 17.6373 257.215 18.778 256.248 19.706C255.32 20.5953 254.141 21.04 252.71 21.04ZM256.712 24.868V57H248.592V24.868H256.712Z" fill="#2468F0"/>
<path d="M202.453 57.406C200.984 57.406 199.766 56.9613 198.799 56.072C197.871 55.144 197.407 54.0033 197.407 52.65C197.407 51.2967 197.871 50.1753 198.799 49.286C199.766 48.358 200.984 47.894 202.453 47.894C203.884 47.894 205.063 48.358 205.991 49.286C206.919 50.1753 207.383 51.2967 207.383 52.65C207.383 54.0033 206.919 55.144 205.991 56.072C205.063 56.9613 203.884 57.406 202.453 57.406Z" fill="#454555"/>
</svg>
